<svg version="1.1" id="Layer_1" xmlns="http://www.w3.org/2000/svg" xmlns:xlink="http://www.w3.org/1999/xlink" x="0px" y="0px"
	 width="100%" viewBox="0 0 512 512" enable-background="new 0 0 512 512" xml:space="preserve">
<path fill="#030104" opacity="1.000000" stroke="none" 
	d="
M0.999999,491.000000 
	C1.000000,334.975922 1.000000,178.951843 1.348649,22.378956 
	C5.296974,16.000872 7.965108,9.390760 14.540127,6.008931 
	C17.976444,4.241478 21.510233,2.663535 25.000000,1.000000 
	C179.357407,1.000000 333.714813,1.000000 488.650879,1.366810 
	C492.614349,3.123969 496.156952,4.224307 499.352386,5.962707 
	C506.902252,10.070024 510.066803,17.490103 513.000000,25.000000 
	C513.000000,179.357407 513.000000,333.714813 512.630798,488.653931 
	C510.361847,498.116333 505.636322,504.907532 497.448151,509.070160 
	C494.681244,510.476746 491.818787,511.695435 489.000000,513.000000 
	C334.642578,513.000000 180.285187,513.000000 25.349098,512.633179 
	C16.455271,510.448944 9.948600,505.983093 5.378027,498.811035 
	C3.776553,496.297913 2.451354,493.608765 0.999999,491.000000 
M148.000000,313.500000 
	C148.000000,303.064941 148.000000,292.629913 148.000000,282.000671 
	C150.528076,282.000671 152.507614,282.000671 154.487152,282.000671 
	C165.152100,282.000671 175.820526,282.173798 186.481201,281.960022 
	C202.341202,281.641998 217.606155,277.916748 232.109436,271.842163 
	C248.695236,264.895325 263.367554,254.837891 272.886566,239.135788 
	C286.214691,217.150375 290.423279,193.243271 284.938568,168.032974 
	C278.279266,137.423676 259.173370,117.567757 229.957062,107.585442 
	C209.138031,100.472221 187.441223,98.960068 165.527130,99.971001 
	C148.037537,100.777832 130.524506,101.119682 113.045158,102.088150 
	C104.024193,102.587967 95.053925,104.002899 86.301117,104.977585 
	C86.301117,198.064972 86.301117,290.436249 86.301117,382.703979 
	C107.002411,382.703979 127.401337,382.703979 148.000000,382.703979 
	C148.000000,359.772339 148.000000,337.136169 148.000000,313.500000 
M381.341705,255.038696 
	C376.191559,252.830612 370.905273,250.889542 365.924500,248.349319 
	C359.142670,244.890518 355.872864,239.368088 356.949066,231.450882 
	C357.895782,224.486115 362.394806,220.477493 368.463959,219.223450 
	C374.821228,217.909912 381.542267,217.984573 388.095764,218.074265 
	C400.068237,218.238083 411.186218,222.109329 421.930420,227.050858 
	C424.690063,228.320084 425.403473,227.823395 426.119446,224.873413 
	C429.247192,211.986633 432.704742,199.179886 436.158112,185.899796 
	C432.605286,184.517990 429.393555,183.096817 426.073273,182.006104 
	C408.014404,176.073792 389.544556,172.984787 370.521759,175.073181 
	C362.341919,175.971176 353.939728,176.708633 346.177887,179.199677 
	C322.908813,186.667557 305.271698,200.608475 298.399475,225.233139 
	C295.002228,237.406052 295.490173,249.597687 300.743134,261.217285 
	C309.444305,280.464417 326.304169,290.198425 344.664154,297.984344 
	C354.689911,302.235962 364.930023,306.000305 374.844116,310.490723 
	C381.215332,313.376495 385.249298,318.913635 384.787384,325.962372 
	C384.297699,333.435364 380.692810,339.041229 372.460419,341.243622 
	C361.518188,344.170990 350.602081,343.917725 339.957520,341.289978 
	C327.101440,338.116211 314.569611,333.628845 301.943542,329.724304 
	C299.174103,341.279205 296.511719,354.362000 292.748718,367.120148 
	C291.234558,372.253845 292.998138,373.844788 296.918549,375.482788 
	C314.778503,382.944916 333.558746,386.121826 352.722870,386.898315 
	C366.797455,387.468567 380.778137,385.745361 394.371918,381.946320 
	C410.495911,377.440186 424.923706,369.741913 434.577820,355.654022 
	C443.690704,342.355988 446.822021,327.448517 444.107178,311.221558 
	C441.411804,295.110809 433.301178,282.869446 420.136627,273.572906 
	C408.458466,265.326019 395.146362,260.607574 381.341705,255.038696 
z"/>
<path fill="#FFFFFF" opacity="1.000000" stroke="none" 
	d="
M513.000000,24.531307 
	C510.066803,17.490103 506.902252,10.070024 499.352386,5.962707 
	C496.156952,4.224307 492.614349,3.123969 489.114777,1.366810 
	C496.926331,1.000000 504.852661,1.000000 513.000000,1.000000 
	C513.000000,8.686131 513.000000,16.374374 513.000000,24.531307 
z"/>
<path fill="#FFFFFF" opacity="1.000000" stroke="none" 
	d="
M489.468689,513.000000 
	C491.818787,511.695435 494.681244,510.476746 497.448151,509.070160 
	C505.636322,504.907532 510.361847,498.116333 512.630798,489.117798 
	C513.000000,496.926331 513.000000,504.852661 513.000000,513.000000 
	C505.313873,513.000000 497.625610,513.000000 489.468689,513.000000 
z"/>
<path fill="#FFFFFF" opacity="1.000000" stroke="none" 
	d="
M0.999999,491.468781 
	C2.451354,493.608765 3.776553,496.297913 5.378027,498.811035 
	C9.948600,505.983093 16.455271,510.448944 24.885212,512.633179 
	C17.076933,513.000000 9.153868,513.000000 1.000000,513.000000 
	C1.000000,505.980865 1.000000,498.959229 0.999999,491.468781 
z"/>
<path fill="#FFFFFF" opacity="1.000000" stroke="none" 
	d="
M24.531307,1.000000 
	C21.510233,2.663535 17.976444,4.241478 14.540127,6.008931 
	C7.965108,9.390760 5.296974,16.000872 1.348649,21.915071 
	C1.000000,15.068801 1.000000,8.137603 1.000000,1.000000 
	C8.686312,1.000000 16.374464,1.000000 24.531307,1.000000 
z"/>
<path fill="#FFFFFF" opacity="1.000000" stroke="none" 
	d="
M148.000000,314.000000 
	C148.000000,337.136169 148.000000,359.772339 148.000000,382.703979 
	C127.401337,382.703979 107.002411,382.703979 86.301117,382.703979 
	C86.301117,290.436249 86.301117,198.064972 86.301117,104.977585 
	C95.053925,104.002899 104.024193,102.587967 113.045158,102.088150 
	C130.524506,101.119682 148.037537,100.777832 165.527130,99.971001 
	C187.441223,98.960068 209.138031,100.472221 229.957062,107.585442 
	C259.173370,117.567757 278.279266,137.423676 284.938568,168.032974 
	C290.423279,193.243271 286.214691,217.150375 272.886566,239.135788 
	C263.367554,254.837891 248.695236,264.895325 232.109436,271.842163 
	C217.606155,277.916748 202.341202,281.641998 186.481201,281.960022 
	C175.820526,282.173798 165.152100,282.000671 154.487152,282.000671 
	C152.507614,282.000671 150.528076,282.000671 148.000000,282.000671 
	C148.000000,292.629913 148.000000,303.064941 148.000000,314.000000 
M220.045502,168.442810 
	C218.429977,165.861481 217.199722,162.906662 215.127014,160.768539 
	C208.797882,154.239670 201.062439,150.072983 192.030289,148.502167 
	C177.359268,145.950592 162.752930,146.234268 148.000671,149.051376 
	C148.000671,176.528900 147.968887,203.511948 148.108246,230.494110 
	C148.114273,231.663361 149.535690,233.641296 150.569824,233.842224 
	C154.244293,234.556152 158.056366,235.087219 161.780411,234.914261 
	C170.286148,234.519241 178.897690,234.368179 187.237717,232.856842 
	C205.382416,229.568741 218.539246,220.004669 223.367477,201.208710 
	C226.209564,190.144714 225.524017,179.407639 220.045502,168.442810 
z"/>
<path fill="#FFFFFF" opacity="1.000000" stroke="none" 
	d="
M381.671173,255.269730 
	C395.146362,260.607574 408.458466,265.326019 420.136627,273.572906 
	C433.301178,282.869446 441.411804,295.110809 444.107178,311.221558 
	C446.822021,327.448517 443.690704,342.355988 434.577820,355.654022 
	C424.923706,369.741913 410.495911,377.440186 394.371918,381.946320 
	C380.778137,385.745361 366.797455,387.468567 352.722870,386.898315 
	C333.558746,386.121826 314.778503,382.944916 296.918549,375.482788 
	C292.998138,373.844788 291.234558,372.253845 292.748718,367.120148 
	C296.511719,354.362000 299.174103,341.279205 301.943542,329.724304 
	C314.569611,333.628845 327.101440,338.116211 339.957520,341.289978 
	C350.602081,343.917725 361.518188,344.170990 372.460419,341.243622 
	C380.692810,339.041229 384.297699,333.435364 384.787384,325.962372 
	C385.249298,318.913635 381.215332,313.376495 374.844116,310.490723 
	C364.930023,306.000305 354.689911,302.235962 344.664154,297.984344 
	C326.304169,290.198425 309.444305,280.464417 300.743134,261.217285 
	C295.490173,249.597687 295.002228,237.406052 298.399475,225.233139 
	C305.271698,200.608475 322.908813,186.667557 346.177887,179.199677 
	C353.939728,176.708633 362.341919,175.971176 370.521759,175.073181 
	C389.544556,172.984787 408.014404,176.073792 426.073273,182.006104 
	C429.393555,183.096817 432.605286,184.517990 436.158112,185.899796 
	C432.704742,199.179886 429.247192,211.986633 426.119446,224.873413 
	C425.403473,227.823395 424.690063,228.320084 421.930420,227.050858 
	C411.186218,222.109329 400.068237,218.238083 388.095764,218.074265 
	C381.542267,217.984573 374.821228,217.909912 368.463959,219.223450 
	C362.394806,220.477493 357.895782,224.486115 356.949066,231.450882 
	C355.872864,239.368088 359.142670,244.890518 365.924500,248.349319 
	C370.905273,250.889542 376.191559,252.830612 381.671173,255.269730 
z"/>
<path fill="#030104" opacity="1.000000" stroke="none" 
	d="
M220.302505,168.738617 
	C225.524017,179.407639 226.209564,190.144714 223.367477,201.208710 
	C218.539246,220.004669 205.382416,229.568741 187.237717,232.856842 
	C178.897690,234.368179 170.286148,234.519241 161.780411,234.914261 
	C158.056366,235.087219 154.244293,234.556152 150.569824,233.842224 
	C149.535690,233.641296 148.114273,231.663361 148.108246,230.494110 
	C147.968887,203.511948 148.000671,176.528900 148.000671,149.051376 
	C162.752930,146.234268 177.359268,145.950592 192.030289,148.502167 
	C201.062439,150.072983 208.797882,154.239670 215.127014,160.768539 
	C217.199722,162.906662 218.429977,165.861481 220.302505,168.738617 
z"/>
</svg>